# File created by Blade
# Date/Time:  Wed Jan 21 15:15:22 2015
# Frame Rate: 120.000 fps
#------------------------------------------------------
:FULLY-SPECIFIED
:DEGREES
1070
root 23.668219 33.701932 -11.816218 187.135218 -60.698397 -181.921772
Spine -10.882907 25.578023 -20.912943
Head -4.286874 -14.715756 12.368788
LeftShoulder -11.382907 -19.718867 5.100957
LeftArm -40.719183 -6.753154 -57.931409
LeftForeArm 1.103796 -0.000000 12.874647
LeftHand -3.496770 -0.000000 0.368134
LeftHandThumb1 -26.253704 0.000000 33.147579
RightShoulder -3.507630 -8.049993 5.205429
RightArm 59.827147 -25.737755 32.375449
RightForeArm -42.492040 -0.000000 78.841370
RightHand -2.128725 -0.000000 7.593314
RightHandThumb1 -24.326973 -0.000000 -32.862282
LeftUpLeg -38.913811 17.319204 -19.617732
LeftLeg 39.706361 -0.000000 -0.000000
LeftFoot -32.851475 39.788250 -17.418433
LeftToeBase 16.363845 -0.000000 -0.000000
RightUpLeg 5.085568 -8.432107 11.787911
RightLeg 20.472149 -0.000000 -0.000000
RightFoot -35.896894 -27.496150 20.835417
RightToeBase 6.983183 -0.000000 -0.000000
1071
root 23.559022 33.786320 -11.851944 188.005788 -60.749882 -182.544339
Spine -11.159243 25.618898 -21.459801
Head -5.079857 -15.100491 11.954449
LeftShoulder -11.465623 -19.666421 4.978473
LeftArm -40.735840 -6.849624 -58.046809
LeftForeArm 1.273568 -0.000000 13.283546
LeftHand -3.521155 0.000000 0.380258
LeftHandThumb1 -26.253704 0.000000 33.147579
RightShoulder -3.330974 -8.056373 4.705147
RightArm 61.001026 -26.767035 31.422725
RightForeArm -42.465221 -0.000000 78.972484
RightHand -2.135031 -0.000000 7.323269
RightHandThumb1 -24.326973 -0.000000 -32.862282
LeftUpLeg -38.185777 16.546653 -19.173836
LeftLeg 38.640977 -0.000000 -0.000000
LeftFoot -32.651974 40.267113 -17.484380
LeftToeBase 16.394243 -0.000000 -0.000000
RightUpLeg 5.049588 -8.258585 11.479971
RightLeg 20.155687 -0.000000 -0.000000
RightFoot -35.037689 -27.697060 20.484532
RightToeBase 6.860000 -0.000000 -0.000000
1072
root 23.440527 33.862823 -11.899463 188.743554 -60.875204 -183.208992
Spine -11.166127 25.674371 -21.938096
Head -5.946437 -15.539965 11.566840
LeftShoulder -11.551460 -19.632326 4.871123
LeftArm -40.607213 -6.887082 -58.228747
LeftForeArm 1.389099 0.000000 13.573345
LeftHand -3.475435 0.000000 0.429334
LeftHandThumb1 -26.253704 0.000000 33.147579
RightShoulder -3.169993 -7.989137 4.237841
RightArm 62.154932 -27.754502 30.579518
RightForeArm -42.337442 0.000000 79.089580
RightHand -1.989873 -0.000000 7.352338
RightHandThumb1 -24.326973 -0.000000 -32.862282
LeftUpLeg -37.217164 15.789112 -18.699011
LeftLeg 37.481265 -0.000000 -0.000000
LeftFoot -32.336172 40.732474 -17.535672
LeftToeBase 16.257979 -0.000000 -0.000000
RightUpLeg 5.214906 -8.117171 11.177300
RightLeg 19.803219 -0.000000 -0.000000
RightFoot -34.210188 -27.911499 20.403061
RightToeBase 6.128523 -0.000000 -0.000000
1073
root 23.316370 33.932173 -11.946338 189.511196 -60.983555 -183.900384
Spine -11.183357 25.711099 -22.414816
Head -6.749598 -15.919510 11.181587
LeftShoulder -11.651425 -19.691339 4.791190
LeftArm -40.521866 -6.864348 -58.408746
LeftForeArm 1.572180 -0.000000 13.773127
LeftHand -3.461854 -0.000000 0.485077
LeftHandThumb1 -26.253704 0.000000 33.147579
RightShoulder -2.913923 -7.811059 3.731429
RightArm 63.061036 -28.811453 30.149604
RightForeArm -42.285383 -0.000000 79.156467
RightHand -1.779797 0.000000 7.608098
RightHandThumb1 -24.326973 -0.000000 -32.862282
LeftUpLeg -36.186831 15.016407 -18.247724
LeftLeg 36.171877 -0.000000 -0.000000
LeftFoot -32.046502 41.155458 -17.591166
LeftToeBase 16.615739 -0.000000 -0.000000
RightUpLeg 5.367417 -7.873716 10.885158
RightLeg 19.498087 -0.000000 -0.000000
RightFoot -33.476154 -28.226963 20.353645
RightToeBase 5.700401 -0.000000 -0.000000
1074
root 23.189963 33.991666 -11.997143 190.300166 -61.155619 -184.640131
Spine -11.139563 25.740718 -22.892617
Head -7.582356 -16.349938 10.825435
LeftShoulder -11.748564 -19.760708 4.739398
LeftArm -40.332579 -6.817225 -58.613412
LeftForeArm 1.737330 -0.000000 13.883848
LeftHand -3.377812 -0.000000 0.492922
LeftHandThumb1 -26.253704 0.000000 33.147579
RightShoulder -2.752054 -7.796695 3.280487
RightArm 64.175470 -29.689299 29.513023
RightForeArm -42.107643 0.000000 79.118251
RightHand -1.648513 0.000000 7.748333
RightHandThumb1 -24.326973 -0.000000 -32.862282
LeftUpLeg -35.108666 14.233015 -17.835900
LeftLeg 34.814365 -0.000000 -0.000000
LeftFoot -31.551758 41.468796 -17.676955
LeftToeBase 16.802401 -0.000000 -0.000000
RightUpLeg 5.527932 -7.736519 10.582081
RightLeg 19.244352 -0.000000 -0.000000
RightFoot -32.847758 -28.508401 20.248495
RightToeBase 5.471933 -0.000000 -0.000000
1075
root 23.056225 34.043706 -12.052394 191.078332 -61.362084 -185.390135
Spine -11.069908 25.739928 -23.352142
Head -8.363979 -16.790761 10.493337
LeftShoulder -11.849117 -19.816636 4.710745
LeftArm -40.080249 -6.789700 -58.809156
LeftForeArm 1.943224 -0.000000 13.914809
LeftHand -3.370025 -0.000000 0.485692
LeftHandThumb1 -26.253704 0.000000 33.147579
RightShoulder -2.516654 -7.706858 2.817624
RightArm 65.102062 -30.622361 29.080724
RightForeArm -41.959131 -0.000000 79.034010
RightHand -1.493545 -0.000000 7.954606
RightHandThumb1 -24.326973 -0.000000 -32.862282
LeftUpLeg -33.953425 13.462423 -17.449218
LeftLeg 33.345962 -0.000000 -0.000000
LeftFoot -30.885780 41.677739 -17.716698
LeftToeBase 16.977213 -0.000000 -0.000000
RightUpLeg 5.717450 -7.578396 10.322150
RightLeg 18.957407 -0.000000 -0.000000
RightFoot -32.244522 -28.968972 20.156668
RightToeBase 5.294883 -0.000000 -0.000000
1076
root 22.918749 34.084225 -12.112847 191.810227 -61.620721 -186.128935
Spine -10.933250 25.742833 -23.759899
Head -9.115577 -17.275978 10.159797
LeftShoulder -11.931016 -19.920512 4.698542
LeftArm -39.801793 -6.668120 -59.052495
LeftForeArm 2.076870 -0.000000 13.893972
LeftHand -3.400824 -0.000000 0.437797
LeftHandThumb1 -26.253704 0.000000 33.147579
RightShoulder -2.305732 -7.611370 2.400611
RightArm 66.001789 -31.532282 28.665837
RightForeArm -41.832853 0.000000 78.889990
RightHand -1.265374 0.000000 8.325480
RightHandThumb1 -24.326973 -0.000000 -32.862282
LeftUpLeg -32.757252 12.751261 -17.091870
LeftLeg 31.840383 -0.000000 -0.000000
LeftFoot -30.067145 41.740404 -17.837840
LeftToeBase 17.217479 -0.000000 -0.000000
RightUpLeg 5.941828 -7.540577 10.081113
RightLeg 18.714953 -0.000000 -0.000000
RightFoot -31.733414 -29.411559 19.942541
RightToeBase 5.604304 -0.000000 -0.000000
1077
root 22.770399 34.117303 -12.179861 192.548707 -61.838894 -186.918399
Spine -10.803322 25.832553 -24.238748
Head -9.840474 -17.789094 9.958425
LeftShoulder -11.987382 -20.010151 4.751529
LeftArm -39.447732 -6.711133 -59.208440
LeftForeArm 2.407343 -0.000000 13.759648
LeftHand -3.362102 -0.000000 0.307915
LeftHandThumb1 -26.253704 0.000000 33.147579
RightShoulder -2.146184 -7.555238 2.064547
RightArm 66.848388 -32.406676 28.337581
RightForeArm -41.776559 -0.000000 78.672452
RightHand -0.925387 0.000000 8.509087
RightHandThumb1 -24.326973 -0.000000 -32.862282
LeftUpLeg -31.466683 12.180900 -16.791961
LeftLeg 30.197879 -0.000000 -0.000000
LeftFoot -29.699866 41.462711 -18.399078
LeftToeBase 18.277980 -0.000000 -0.000000
RightUpLeg 6.215227 -7.491091 9.805677
RightLeg 18.505234 -0.000000 -0.000000
RightFoot -31.247504 -29.824453 19.815624
RightToeBase 5.552201 -0.000000 -0.000000
